<?xml version="1.0" encoding="UTF-8" standalone="no"?>
<svg
   width="250"
   height="250"
   viewBox="0 0 250 250"
   version="1.1"
   id="svg16"
   sodipodi:docname="friendlyhub_logo.svg"
   inkscape:version="1.4.3 (0d15f75042, 2025-12-25)"
   xmlns:inkscape="http://www.inkscape.org/namespaces/inkscape"
   xmlns:sodipodi="http://sodipodi.sourceforge.net/DTD/sodipodi-0.dtd"
   xmlns="http://www.w3.org/2000/svg"
   xmlns:svg="http://www.w3.org/2000/svg">
  <defs
     id="defs16" />
  <sodipodi:namedview
     id="namedview16"
     pagecolor="#ffffff"
     bordercolor="#000000"
     borderopacity="0.25"
     inkscape:showpageshadow="2"
     inkscape:pageopacity="0.0"
     inkscape:pagecheckerboard="0"
     inkscape:deskcolor="#d1d1d1"
     showguides="true"
     inkscape:zoom="3.2809755"
     inkscape:cx="90.064677"
     inkscape:cy="105.15165"
     inkscape:window-width="2560"
     inkscape:window-height="1371"
     inkscape:window-x="0"
     inkscape:window-y="0"
     inkscape:window-maximized="1"
     inkscape:current-layer="svg16" />
  <!-- SVG created with Arrow, by QuiverAI (https://quiver.ai) -->
  <path
     d="m124.3 223.8 94.18-28.15c1.8-0.55 2.52-1.5 2.52-3.43l0.08-72.51 20.86-4.98c3.13-0.77 3.55-3.58 1.53-5.67l-21.39-29.41 23.12-26.38c2.23-2.59 2.23-6.1-1.58-6.67l-79.49-21.45c-2.36-0.65-3.91-0.25-5.13 1.29l-26.77 29.83-6.23-1.22c-1.02-0.22-1.85-0.15-2.8 0.07l-6.66 1.29-25.77-29.83c-1.62-1.98-3.31-2.26-5.35-1.67l-78.47 22.05c-3.43 0.76-4.32 3.79-2.13 6.38l22 25.68-19.87 30.18c-1.73 2.52-0.93 4.76 1.87 5.6l19.32 5.33v72.09c0 2.08 0.88 3.08 2.68 3.71l91.61 27.8c0.63 0.14 1.26 0.21 1.87 0.07z"
     fill="#1A1C1C"
     id="path1" />
  <path
     d="m 124.9,215.5 88.25,-26.23 v -68.43 l -56.47,15.44 c -1.98,0.56 -4.79,-0.21 -6.09,-2.29 l -22.07669,-30.93394 c -1.09,-1.67 -7.53268,-1.34675 -8.30268,0.0132 L 98.89,134.65 c -1.43,2.29 -3.19,2.64 -6.07,1.77 L 35.94,120.98 v 68.29 l 86.73,26.23 c 0.73,0.25 1.51,0.25 2.23,0 z"
     fill="#2ba85b"
     stroke="#00D646"
     stroke-miterlimit="10"
     stroke-width="0.5"
     id="path2"
     style="stroke:none;fill:#009966;fill-opacity:1"
     sodipodi:nodetypes="ccccccccccccc" />
  <path
     d="M 134.44747,100.3617 215.31013,82.375929 234.64253,110.34761 155.52,129.4 Z"
     fill="#2ba85b"
     stroke="#00D646"
     stroke-miterlimit="10"
     stroke-width="0.5"
     id="path3"
     style="stroke:none;fill:#009966;fill-opacity:1"
     sodipodi:nodetypes="ccccc" />
  <path
     d="M 139.4,58.94 162.7681,32.135638 237.21098,52.176622 213.5,76.32 Z"
     fill="#2ba85b"
     stroke="#00D646"
     stroke-miterlimit="10"
     stroke-width="0.5"
     id="path4"
     style="stroke:none;fill:#009966;fill-opacity:1"
     sodipodi:nodetypes="ccccc" />
  <path
     d="m 12.571835,51.871835 74.52,-20.535347 L 109.53,58.73 34.47,76.11 Z"
     fill="#2ba85b"
     stroke="#00D646"
     stroke-miterlimit="10"
     stroke-width="0.5"
     id="path5"
     style="stroke:none;fill:#009966;fill-opacity:1"
     sodipodi:nodetypes="ccccc" />
  <path
     d="M 15.007441,109.78284 33.966509,82.672294 115.23856,99.829745 93.041669,131.73071 Z"
     fill="#2ba85b"
     stroke="#00D646"
     stroke-miterlimit="10"
     stroke-width="0.5"
     id="path6"
     style="stroke:none;fill:#009966;fill-opacity:1"
     sodipodi:nodetypes="ccccc" />
  <path
     d="M 35.83,120.84754 94.74,136.74 89.76,137.61 35.83,129.69 Z"
     fill="#187f4f"
     id="path7"
     sodipodi:nodetypes="ccccc" />
  <path
     d="m 157.80086,135.82414 55.45526,-15.065 0.0539,7.01086 -50.40595,9.79474 z"
     fill="#187f4f"
     id="path8"
     sodipodi:nodetypes="ccccc" />
  <path
     d="m93.06 142.5c-10.14-0.91-16.3 5.81-18.95 11.5-1.15 3.75 1.98 5.11 3.81 4.55 1.83-0.35 2.53-1.3 3.55-3.24 2.05-3.51 5.32-5.05 8.71-5.12 4.08-0.07 6.51 2.8 8.74 6.1 1.22 1.91 5.99 2.82 6.94-0.14 1.55-4.35-5.11-12.97-12.8-13.65z"
     fill="#1A1C1C"
     stroke="#00D646"
     stroke-miterlimit="10"
     stroke-width=".25"
     id="path14"
     style="stroke:none" />
  <path
     d="m159.2 142c-10.14-0.49-15.26 7.27-16.35 11.71-0.63 3.32 1.95 4.76 4.38 4.41 1.83-0.28 2.53-1.23 3.55-3.17 2.05-3.51 5.85-4.98 9.24-4.91 4.09 0.14 6.38 2.94 8.61 6.24 1.22 1.91 5.7 2.82 6.65-0.14 1.5-4.42-6.18-13.72-16.08-14.14z"
     fill="#1A1C1C"
     stroke="#00D646"
     stroke-miterlimit="10"
     stroke-width=".25"
     id="path15"
     style="stroke:none" />
  <path
     d="m124.3 187c19.1 0 31.83-9.43 36.06-15.88 1.83-3.03-1.04-6.19-3.4-5.91-2.04 0.21-3.06 1.29-4.28 3.37-3.98 6.25-14.54 10.35-28.31 10.35-13.16 0-22.34-5.05-26.82-11.13-2.43-2.73-7.53-2.03-7.53 2.27 0 6.33 11.87 16.93 34.28 16.93z"
     fill="#1A1C1C"
     stroke="#00D646"
     stroke-miterlimit="10"
     stroke-width=".25"
     id="path16"
     style="stroke:none" />
  <path
     style="fill:#009966;fill-opacity:1;stroke:none;stroke-width:0.596;stroke-opacity:0.2"
     d="m 43.584599,79.8543 81.378241,-19.811181 81.98781,19.201606 -81.85894,17.76694 z"
     id="path17"
     sodipodi:nodetypes="ccccc" />
  <path
     style="fill:#1a1c1c;fill-opacity:1;stroke:none;stroke-width:0.596;stroke-opacity:0.2"
     d="m 121.15299,60.805087 -0.45718,35.35534 3.65745,1.066755 4.11463,-0.304787 -0.60957,-36.574489 -2.13352,-1.828724 z"
     id="path18" />
</svg>
