<?xml version="1.0" encoding="UTF-8" standalone="no"?>
<svg
   width="256"
   height="256"
   viewBox="0 0 256 256"
   fill="none"
   version="1.1"
   id="svg17"
   sodipodi:docname="friendlyhub_white.svg"
   inkscape:version="1.4.3 (0d15f75042, 2025-12-25)"
   inkscape:export-filename="friendlyhub_white256.svg"
   inkscape:export-xdpi="98.304001"
   inkscape:export-ydpi="98.304001"
   xmlns:inkscape="http://www.inkscape.org/namespaces/inkscape"
   xmlns:sodipodi="http://sodipodi.sourceforge.net/DTD/sodipodi-0.dtd"
   xmlns="http://www.w3.org/2000/svg"
   xmlns:svg="http://www.w3.org/2000/svg">
  <defs
     id="defs17" />
  <sodipodi:namedview
     id="namedview17"
     pagecolor="#000000"
     bordercolor="#000000"
     borderopacity="0.25"
     inkscape:showpageshadow="2"
     inkscape:pageopacity="0.0"
     inkscape:pagecheckerboard="true"
     inkscape:deskcolor="#d1d1d1"
     showguides="false"
     showgrid="true"
     inkscape:zoom="3.2809755"
     inkscape:cx="130.90619"
     inkscape:cy="131.05858"
     inkscape:window-width="2560"
     inkscape:window-height="1371"
     inkscape:window-x="0"
     inkscape:window-y="0"
     inkscape:window-maximized="1"
     inkscape:current-layer="svg17">
    <sodipodi:guide
       position="125,154.97373"
       orientation="-1,0"
       id="guide17"
       inkscape:locked="false"
       inkscape:label=""
       inkscape:color="rgb(0,134,229)" />
    <sodipodi:guide
       position="109.98451,125"
       orientation="0,1"
       id="guide18"
       inkscape:locked="false"
       inkscape:label=""
       inkscape:color="rgb(0,134,229)" />
    <inkscape:grid
       id="grid21"
       units="px"
       originx="0"
       originy="0"
       spacingx="1"
       spacingy="1"
       empcolor="#0099e5"
       empopacity="0.30196078"
       color="#0099e5"
       opacity="0.14901961"
       empspacing="5"
       enabled="true"
       visible="true" />
    <sodipodi:guide
       position="128.01724,62.284483"
       orientation="0,-1"
       id="guide21"
       inkscape:locked="false" />
    <sodipodi:guide
       position="125.11281,187.484"
       orientation="0,-1"
       id="guide22"
       inkscape:locked="false" />
    <sodipodi:guide
       position="62.483163,139.73094"
       orientation="1,0"
       id="guide23"
       inkscape:locked="false" />
    <sodipodi:guide
       position="187.49747,146.18804"
       orientation="1,0"
       id="guide24"
       inkscape:locked="false" />
    <sodipodi:guide
       position="93.534483,230.17241"
       orientation="0,-1"
       id="guide25"
       inkscape:locked="false" />
    <sodipodi:guide
       position="134.48276,20.043103"
       orientation="0,-1"
       id="guide26"
       inkscape:locked="false" />
    <sodipodi:guide
       position="15.086207,203.23276"
       orientation="1,0"
       id="guide27"
       inkscape:locked="false" />
    <sodipodi:guide
       position="234.91379,196.76724"
       orientation="1,0"
       id="guide28"
       inkscape:locked="false" />
  </sodipodi:namedview>
  <g
     id="g18"
     inkscape:label="Shirt"
     transform="matrix(1.0593835,0,0,1.1158691,6.803038,-26.178222)">
    <path
       d="m 109.02,151.83 c 0,-6.47 -5.25,-9.28 -9.57,-9.28 H 11.82 c -5.83,0 -8.76,5.52 -8.76,9.28 v 81.55 c 0,5.95 4.8,9.33 8.65,9.33 h 87.82 c 6.49,0 9.26,-5.63 9.26,-9.33 z m -6.56,40.58 -9.14,2.94 0.83,41.03 H 90.62 L 88.36,183.3 c -0.04,-1.79 1.25,-2.42 2.89,-1.72 l 12.33,6.18 c 1.9,0.95 1.48,3.72 -1.12,4.65 z M 55.45,166.49 c -15.16,0 -23.97,-10.27 -23.97,-18.11 h 4.4 c 1.57,6.8 8.81,14.03 19.8,14.03 12.24,0 18.23,-7.35 19.21,-13.6 h 4.56 c 0,7.33 -8.53,17.68 -24,17.68 z m -38.73,28.86 -7.81,-2.94 c -2.1,-1.04 -2.77,-4.2 -0.79,-5.2 l 10.74,-5.79 c 2.38,-1.04 3.66,-0.73 3.43,1.49 l -2.68,53.47 h -3.6 z"
       fill="#010101"
       id="path1"
       style="fill:#ffffff;fill-opacity:1" />
  </g>
  <g
     id="g19"
     inkscape:label="Package"
     transform="matrix(1.0680731,0,0,1.1158691,-19.234811,0.75655044)">
    <path
       d="m 244.78,29.22 -18.99,-9.08 -49.27,22.46 18.54,7.51 z"
       fill="#010101"
       id="path2"
       style="fill:#ffffff;fill-opacity:1" />
    <path
       d="M 163.81,36.52 211.08,14.61 193.65,8.14 144.89,28.48 Z"
       fill="#010101"
       id="path3"
       style="fill:#ffffff;fill-opacity:1" />
    <path
       d="m 142.92,32.74 18.27,7.87 V 60.3 l 5.95,-1 6.48,7.16 V 46.09 l 18.81,8.3 -0.12,53.97 -47.73,-21.45 c -1.24,-0.54 -1.82,-1.27 -1.82,-2.62 z"
       fill="#010101"
       id="path4"
       style="fill:#ffffff;fill-opacity:1" />
    <path
       d="m 197.41,54.39 50.21,-20.97 v 51.37 c 0,1.58 -0.58,2.47 -2,3.08 l -48.09,20.41 z"
       fill="#010101"
       id="path5"
       style="fill:#ffffff;fill-opacity:1" />
  </g>
  <g
     id="g20"
     inkscape:label="Face"
     transform="matrix(1.0702778,0,0,1.0946413,-0.61246519,-4.4967492)">
    <path
       d="m 62.237586,13.093448 c -28.5,0 -51.85,23.22 -51.85,50.27 v 0.73 c 15.01,-1.43 29.05,-16.4 30.41,-39.78 6.44,14.35 16.55,24.38 36.51,26.6 17.43,1.43 29.620004,6.43 36.150004,25.1 0.91,-3.95 1.34,-7.33 1.34,-11.92 0,-27.35 -22.850004,-51 -52.560004,-51 z"
       fill="#010101"
       id="path6"
       style="fill:#ffffff;fill-opacity:1" />
    <path
       d="m 10.737586,68.063448 c 15.55,-1.43 27.07,-14.93 32.09,-29.72 8.22,10.97 19.62,15.67 35.31,16.87 16.98,1.04 29.140004,10.12 32.180004,29.97 -9.98,18.050002 -25.930004,29.870002 -48.080004,29.870002 -26.79,0 -51.03,-21.270002 -51.5,-46.990002 z m 34.12,-4.7 c -2.3,2.27 -3.72,10.17 0,12.49 2.26,1.43 4.66,-0.19 5.24,-2.52 1.14,-3.57 0.6,-10.55 -3.84,-11.32 -0.62,0.04 -1.05,0.61 -1.4,1.35 z m 31.62,0 c -2.3,2.27 -2.73,10.17 0.46,12.3 2.6,1.7 5,-0.55 5.58,-2.88 1.14,-3.57 0.43,-10.23 -3.88,-10.58 -0.99,-0.08 -1.66,0.42 -2.16,1.16 z m -33.88,28.34 c -0.16,1.81 1.34,2.78 2.22,3.52 5.72,4.810002 11.17,6.760002 18.22,6.610002 7.12,-0.16 13.2,-3.220002 18,-8.200002 2.14,-2.27 0.12,-4.45 -1.89,-3.9 -1.54,0.43 -3.64,4.75 -11.21,6.81 -5.6,1.57 -13.45,0.23 -19.9,-5.87 -1.74,-1.61 -5.09,-1.33 -5.44,1.03 z"
       fill="#010101"
       id="path7"
       style="fill:#ffffff;fill-opacity:1" />
  </g>
  <g
     id="g21"
     inkscape:label="Portal"
     transform="matrix(1.052859,0,0,1.0374172,-15.247491,-6.935872)">
    <path
       d="m 193.42,134.92 c -2.14,0 -2.57,1.84 -2.41,3.79 v 8.57 c -0.16,2.18 0.43,3.07 2.1,3.07 1.6,0 2.5,-1.24 2.5,-2.84 v -9.49 c 0,-1.81 -0.75,-3.1 -2.19,-3.1 z"
       fill="#010101"
       id="path8"
       style="fill:#ffffff;fill-opacity:1" />
    <path
       d="m 165.79,142.13 c -1.57,1.08 -1.88,2.51 -0.81,4.2 l 6.2,8.57 c 1.06,1.36 2.6,1.28 3.39,0.16 0.94,-1.2 0.27,-3.01 -0.56,-4.05 l -5.26,-7.92 c -0.67,-1.04 -1.88,-1.55 -2.96,-0.96 z"
       fill="#010101"
       id="path9"
       style="fill:#ffffff;fill-opacity:1" />
    <path
       d="m 147.72,161.21 c -1.24,1.55 -1.4,3.12 0.74,4.24 l 9.15,5.02 c 1.6,0.89 2.7,-0.16 3.13,-1.09 0.67,-1.43 -0.27,-2.86 -1.61,-3.52 l -8.92,-5.02 c -0.99,-0.55 -1.98,-0.43 -2.49,0.37 z"
       fill="#010101"
       id="path10"
       style="fill:#ffffff;fill-opacity:1" />
    <path
       d="m 143.31,185.44 c -1.98,0.27 -2.88,2.53 -1.82,3.96 0.58,0.59 0.74,0.59 1.63,0.59 h 11.24 c 1.67,0 2.5,-1.24 2.42,-2.44 -0.16,-1.47 -1.22,-2.11 -2.57,-2.11 z"
       fill="#010101"
       id="path11"
       style="fill:#ffffff;fill-opacity:1" />
    <path
       d="m 161.72,203.61 -10.41,6.18 c -1.57,1.04 -1.69,2.59 -0.98,3.52 0.98,1.35 2.4,1 3.5,0.35 l 9.26,-5.95 c 1.57,-1.04 1.53,-2.69 0.66,-3.79 -0.58,-0.66 -1.48,-0.66 -2.03,-0.31 z"
       fill="#010101"
       id="path12"
       style="fill:#ffffff;fill-opacity:1" />
    <path
       d="m 224.81,203.61 c -1.44,0.35 -2.5,2.3 -1.25,3.99 l 10.41,6.47 c 1.57,0.67 2.74,-0.11 3.17,-1 0.67,-1.57 -0.39,-2.87 -1.71,-3.64 l -8.92,-5.67 c -0.59,-0.27 -1.02,-0.39 -1.7,-0.15 z"
       fill="#010101"
       id="path13"
       style="fill:#ffffff;fill-opacity:1" />
    <path
       d="m 233.18,185.44 c -1.82,0.27 -2.4,1.64 -1.97,2.88 0.42,1.12 1.32,1.67 2.56,1.6 h 10.61 c 1.74,0 2.57,-1.21 2.57,-2.29 -0.08,-1.51 -1.22,-2.27 -2.46,-2.19 z"
       fill="#010101"
       id="path14"
       style="fill:#ffffff;fill-opacity:1" />
    <path
       d="m 237.92,160.92 -9.98,6.1 c -1.43,0.89 -1.43,2.32 -0.76,3.21 0.72,1.04 1.96,0.65 2.86,0.16 l 9.54,-5.67 c 1.34,-0.89 1.61,-2.4 0.74,-3.76 -0.79,-1.04 -1.95,-0.65 -2.4,-0.04 z"
       fill="#010101"
       id="path15"
       style="fill:#ffffff;fill-opacity:1" />
    <path
       d="m 219.48,142.78 -6.97,10.12 c -0.83,1.36 -0.24,2.71 0.82,3.13 1.42,0.65 2.66,-0.24 3.33,-1.52 l 5.95,-8.65 c 0.9,-1.65 0.11,-3.53 -1.46,-4.04 -0.67,-0.2 -1.4,0.19 -1.67,0.96 z"
       fill="#010101"
       id="path16"
       style="fill:#ffffff;fill-opacity:1" />
    <path
       d="m 192.91,156.61 c -14.89,0 -26.2,12.02 -26.2,24.7 0,8.84 5.34,16.74 12.91,20.46 l -12.01,36.14 c -0.9,2.5 0.92,4.3 2.67,4.3 h 45.43 c 2.52,0 3.58,-2.69 2.91,-4.38 l -12.16,-36.1 c 8.02,-4.11 12.82,-12.01 12.82,-20.85 -0.5,-12.76 -11.56,-24.27 -26.37,-24.27 z"
       fill="#010101"
       id="path17"
       style="fill:#ffffff;fill-opacity:1" />
  </g>
</svg>
